<svg xmlns="http://www.w3.org/2000/svg" width="1200" height="900" viewBox="0 0 1200 900" role="img" aria-label="Black wireless earbuds product image">
  <defs>
    <linearGradient id="bg" x1="0" x2="1" y1="0" y2="1">
      <stop offset="0" stop-color="#020617"/>
      <stop offset="0.52" stop-color="#1e293b"/>
      <stop offset="1" stop-color="#0891b2"/>
    </linearGradient>
    <radialGradient id="glow" cx="50%" cy="36%" r="62%">
      <stop offset="0" stop-color="#ffffff" stop-opacity="0.78"/>
      <stop offset="0.45" stop-color="#ffffff" stop-opacity="0.18"/>
      <stop offset="1" stop-color="#ffffff" stop-opacity="0"/>
    </radialGradient>
    <filter id="shadow" x="-25%" y="-25%" width="150%" height="150%">
      <feDropShadow dx="0" dy="30" stdDeviation="26" flood-color="#020617" flood-opacity="0.32"/>
    </filter>
    <filter id="soft" x="-15%" y="-15%" width="130%" height="130%">
      <feGaussianBlur stdDeviation="10"/>
    </filter>
    <linearGradient id="shine" x1="0" x2="1" y1="0" y2="1">
      <stop offset="0" stop-color="#ffffff" stop-opacity="0.82"/>
      <stop offset="0.35" stop-color="#ffffff" stop-opacity="0.16"/>
      <stop offset="1" stop-color="#ffffff" stop-opacity="0"/>
    </linearGradient>
  </defs>
  <rect width="1200" height="900" rx="78" fill="url(#bg)"/>
  <circle cx="190" cy="120" r="280" fill="url(#glow)"/>
  <circle cx="1030" cy="760" r="340" fill="#ffffff" opacity="0.10"/>
  <path d="M98 160 C255 60 405 68 566 130 S894 248 1090 112" fill="none" stroke="#ffffff" stroke-opacity="0.22" stroke-width="7"/>
  <path d="M90 740 C270 680 420 765 585 728 S910 620 1108 706" fill="none" stroke="#ffffff" stroke-opacity="0.14" stroke-width="5"/>

  <g filter="url(#shadow)">
    <rect x="408" y="418" width="384" height="190" rx="76" fill="#0f172a"/>
    <rect x="452" y="450" width="296" height="96" rx="44" fill="#1f2937"/>
    <rect x="552" y="420" width="96" height="36" rx="18" fill="#334155"/>
    <circle cx="600" cy="525" r="18" fill="#22d3ee" opacity="0.95"/>
  </g>
  <g filter="url(#shadow)">
    <g transform="translate(352 166) rotate(-16)">
      <rect x="82" y="106" width="74" height="220" rx="37" fill="#111827"/>
      <ellipse cx="119" cy="92" rx="58" ry="70" fill="#0f172a"/>
      <ellipse cx="129" cy="84" rx="30" ry="38" fill="#334155"/>
      <circle cx="134" cy="82" r="17" fill="#020617"/>
    </g>
    <g transform="translate(688 166) scale(-1 1) rotate(-16)">
      <rect x="82" y="106" width="74" height="220" rx="37" fill="#111827"/>
      <ellipse cx="119" cy="92" rx="58" ry="70" fill="#0f172a"/>
      <ellipse cx="129" cy="84" rx="30" ry="38" fill="#334155"/>
      <circle cx="134" cy="82" r="17" fill="#020617"/>
    </g>
  </g>
  <path d="M414 278 C330 340 312 452 356 542" fill="none" stroke="#22d3ee" stroke-width="10" stroke-linecap="round" opacity="0.35"/>
  <path d="M786 278 C870 340 888 452 844 542" fill="none" stroke="#22d3ee" stroke-width="10" stroke-linecap="round" opacity="0.35"/>

  <text x="600" y="756" text-anchor="middle" font-size="58" font-weight="900" font-family="Inter, Arial, sans-serif" fill="#ffffff">AirBass</text>
  <text x="600" y="812" text-anchor="middle" font-size="25" font-weight="700" font-family="Inter, Arial, sans-serif" fill="#ffffff" opacity="0.82">AZIKO MARKET • mos mahsulot rasmi</text>
</svg>
