<svg xmlns="http://www.w3.org/2000/svg" width="1200" height="900" viewBox="0 0 1200 900" role="img" aria-label="iPhone 16 Pro product image">
  <defs>
    <linearGradient id="bg" x1="0" x2="1" y1="0" y2="1">
      <stop offset="0" stop-color="#1e293b"/>
      <stop offset="0.52" stop-color="#2563eb"/>
      <stop offset="1" stop-color="#a78bfa"/>
    </linearGradient>
    <radialGradient id="glow" cx="50%" cy="36%" r="62%">
      <stop offset="0" stop-color="#ffffff" stop-opacity="0.78"/>
      <stop offset="0.45" stop-color="#ffffff" stop-opacity="0.18"/>
      <stop offset="1" stop-color="#ffffff" stop-opacity="0"/>
    </radialGradient>
    <filter id="shadow" x="-25%" y="-25%" width="150%" height="150%">
      <feDropShadow dx="0" dy="30" stdDeviation="26" flood-color="#020617" flood-opacity="0.32"/>
    </filter>
    <filter id="soft" x="-15%" y="-15%" width="130%" height="130%">
      <feGaussianBlur stdDeviation="10"/>
    </filter>
    <linearGradient id="shine" x1="0" x2="1" y1="0" y2="1">
      <stop offset="0" stop-color="#ffffff" stop-opacity="0.82"/>
      <stop offset="0.35" stop-color="#ffffff" stop-opacity="0.16"/>
      <stop offset="1" stop-color="#ffffff" stop-opacity="0"/>
    </linearGradient>
  </defs>
  <rect width="1200" height="900" rx="78" fill="url(#bg)"/>
  <circle cx="190" cy="120" r="280" fill="url(#glow)"/>
  <circle cx="1030" cy="760" r="340" fill="#ffffff" opacity="0.10"/>
  <path d="M98 160 C255 60 405 68 566 130 S894 248 1090 112" fill="none" stroke="#ffffff" stroke-opacity="0.22" stroke-width="7"/>
  <path d="M90 740 C270 680 420 765 585 728 S910 620 1108 706" fill="none" stroke="#ffffff" stroke-opacity="0.14" stroke-width="5"/>

  <g filter="url(#shadow)">
    <rect x="372" y="126" width="456" height="546" rx="74" fill="#c9c4ba"/>
    <rect x="393" y="148" width="414" height="502" rx="58" fill="#1f2937"/>
    <rect x="413" y="170" width="374" height="458" rx="44" fill="#0b1020"/>
    <path d="M430 188 C560 150 688 182 768 264 L768 610 L430 610 Z" fill="url(#shine)" opacity="0.24"/>
    <rect x="543" y="179" width="114" height="30" rx="15" fill="#050816"/>
    <circle cx="604" cy="401" r="104" fill="#1d4ed8" opacity="0.22"/>
    <circle cx="604" cy="401" r="73" fill="#38bdf8" opacity="0.18"/>
  </g>
  <g filter="url(#shadow)" transform="translate(254 96) rotate(-8)">
    <rect x="24" y="78" width="218" height="314" rx="44" fill="#d6d3ca"/>
    <rect x="45" y="101" width="176" height="268" rx="34" fill="#171717"/>
    <rect x="67" y="121" width="102" height="116" rx="28" fill="#f4f1e8" opacity="0.93"/>
    <circle cx="102" cy="158" r="26" fill="#101827"/>
    <circle cx="139" cy="201" r="26" fill="#101827"/>
    <circle cx="102" cy="201" r="12" fill="#475569"/>
    <circle cx="154" cy="155" r="8" fill="#fbbf24"/>
  </g>

  <text x="600" y="756" text-anchor="middle" font-size="58" font-weight="900" font-family="Inter, Arial, sans-serif" fill="#ffffff">iPhone 16 Pro</text>
  <text x="600" y="812" text-anchor="middle" font-size="25" font-weight="700" font-family="Inter, Arial, sans-serif" fill="#ffffff" opacity="0.82">AZIKO MARKET • mos mahsulot rasmi</text>
</svg>
