<svg xmlns="http://www.w3.org/2000/svg" width="1200" height="900" viewBox="0 0 1200 900" role="img" aria-label="MacBook Pro product image">
  <defs>
    <linearGradient id="bg" x1="0" x2="1" y1="0" y2="1">
      <stop offset="0" stop-color="#111827"/>
      <stop offset="0.52" stop-color="#475569"/>
      <stop offset="1" stop-color="#0ea5e9"/>
    </linearGradient>
    <radialGradient id="glow" cx="50%" cy="36%" r="62%">
      <stop offset="0" stop-color="#ffffff" stop-opacity="0.78"/>
      <stop offset="0.45" stop-color="#ffffff" stop-opacity="0.18"/>
      <stop offset="1" stop-color="#ffffff" stop-opacity="0"/>
    </radialGradient>
    <filter id="shadow" x="-25%" y="-25%" width="150%" height="150%">
      <feDropShadow dx="0" dy="30" stdDeviation="26" flood-color="#020617" flood-opacity="0.32"/>
    </filter>
    <filter id="soft" x="-15%" y="-15%" width="130%" height="130%">
      <feGaussianBlur stdDeviation="10"/>
    </filter>
    <linearGradient id="shine" x1="0" x2="1" y1="0" y2="1">
      <stop offset="0" stop-color="#ffffff" stop-opacity="0.82"/>
      <stop offset="0.35" stop-color="#ffffff" stop-opacity="0.16"/>
      <stop offset="1" stop-color="#ffffff" stop-opacity="0"/>
    </linearGradient>
  </defs>
  <rect width="1200" height="900" rx="78" fill="url(#bg)"/>
  <circle cx="190" cy="120" r="280" fill="url(#glow)"/>
  <circle cx="1030" cy="760" r="340" fill="#ffffff" opacity="0.10"/>
  <path d="M98 160 C255 60 405 68 566 130 S894 248 1090 112" fill="none" stroke="#ffffff" stroke-opacity="0.22" stroke-width="7"/>
  <path d="M90 740 C270 680 420 765 585 728 S910 620 1108 706" fill="none" stroke="#ffffff" stroke-opacity="0.14" stroke-width="5"/>

  <g filter="url(#shadow)">
    <rect x="220" y="156" width="760" height="454" rx="42" fill="#cbd5e1"/>
    <rect x="252" y="188" width="696" height="388" rx="24" fill="#0f172a"/>
    <rect x="286" y="224" width="628" height="316" rx="18" fill="#111827"/>
    <path d="M296 236 C470 155 748 194 910 360 L910 540 L296 540 Z" fill="url(#shine)" opacity="0.17"/>
    <circle cx="600" cy="390" r="92" fill="#94a3b8" opacity="0.18"/>
    <path d="M565 412 C573 363 622 347 654 375 C623 382 613 425 565 412Z" fill="#e2e8f0" opacity="0.95"/>
  </g>
  <g filter="url(#shadow)">
    <path d="M142 626 H1058 L1006 704 H194 Z" fill="#e5e7eb"/>
    <path d="M190 633 H1010 L980 674 H220 Z" fill="#cbd5e1"/>
    <rect x="525" y="641" width="150" height="22" rx="11" fill="#94a3b8" opacity="0.75"/>
  </g>

  <text x="600" y="756" text-anchor="middle" font-size="58" font-weight="900" font-family="Inter, Arial, sans-serif" fill="#ffffff">MacBook Pro</text>
  <text x="600" y="812" text-anchor="middle" font-size="25" font-weight="700" font-family="Inter, Arial, sans-serif" fill="#ffffff" opacity="0.82">AZIKO MARKET • mos mahsulot rasmi</text>
</svg>
