<svg xmlns="http://www.w3.org/2000/svg" width="1200" height="900" viewBox="0 0 1200 900" role="img" aria-label="Samsung Galaxy S25 Ultra product image">
  <defs>
    <linearGradient id="bg" x1="0" x2="1" y1="0" y2="1">
      <stop offset="0" stop-color="#020617"/>
      <stop offset="0.52" stop-color="#0ea5e9"/>
      <stop offset="1" stop-color="#334155"/>
    </linearGradient>
    <radialGradient id="glow" cx="50%" cy="36%" r="62%">
      <stop offset="0" stop-color="#ffffff" stop-opacity="0.78"/>
      <stop offset="0.45" stop-color="#ffffff" stop-opacity="0.18"/>
      <stop offset="1" stop-color="#ffffff" stop-opacity="0"/>
    </radialGradient>
    <filter id="shadow" x="-25%" y="-25%" width="150%" height="150%">
      <feDropShadow dx="0" dy="30" stdDeviation="26" flood-color="#020617" flood-opacity="0.32"/>
    </filter>
    <filter id="soft" x="-15%" y="-15%" width="130%" height="130%">
      <feGaussianBlur stdDeviation="10"/>
    </filter>
    <linearGradient id="shine" x1="0" x2="1" y1="0" y2="1">
      <stop offset="0" stop-color="#ffffff" stop-opacity="0.82"/>
      <stop offset="0.35" stop-color="#ffffff" stop-opacity="0.16"/>
      <stop offset="1" stop-color="#ffffff" stop-opacity="0"/>
    </linearGradient>
  </defs>
  <rect width="1200" height="900" rx="78" fill="url(#bg)"/>
  <circle cx="190" cy="120" r="280" fill="url(#glow)"/>
  <circle cx="1030" cy="760" r="340" fill="#ffffff" opacity="0.10"/>
  <path d="M98 160 C255 60 405 68 566 130 S894 248 1090 112" fill="none" stroke="#ffffff" stroke-opacity="0.22" stroke-width="7"/>
  <path d="M90 740 C270 680 420 765 585 728 S910 620 1108 706" fill="none" stroke="#ffffff" stroke-opacity="0.14" stroke-width="5"/>

  <g filter="url(#shadow)">
    <rect x="374" y="116" width="438" height="568" rx="48" fill="#222831"/>
    <rect x="394" y="136" width="398" height="528" rx="36" fill="#0b1220"/>
    <rect x="413" y="158" width="360" height="484" rx="28" fill="#111827"/>
    <path d="M420 170 C525 120 710 165 772 278 L772 642 L420 642 Z" fill="url(#shine)" opacity="0.18"/>
    <circle cx="592" cy="384" r="125" fill="#22d3ee" opacity="0.11"/>
    <path d="M500 418 C565 346 654 343 710 423" fill="none" stroke="#60a5fa" stroke-width="16" stroke-linecap="round" opacity="0.55"/>
  </g>
  <g filter="url(#shadow)" transform="translate(270 122) rotate(-8)">
    <rect x="34" y="42" width="198" height="384" rx="30" fill="#e7eef8"/>
    <rect x="56" y="64" width="154" height="340" rx="22" fill="#f8fafc"/>
    <circle cx="90" cy="104" r="18" fill="#111827"/>
    <circle cx="90" cy="164" r="18" fill="#111827"/>
    <circle cx="90" cy="224" r="18" fill="#111827"/>
    <circle cx="90" cy="284" r="12" fill="#334155"/>
  </g>
  <g transform="translate(850 190) rotate(10)" filter="url(#shadow)">
    <rect x="0" y="0" width="28" height="390" rx="14" fill="#0f172a"/>
    <rect x="5" y="18" width="18" height="332" rx="9" fill="#334155"/>
    <path d="M0 384 L14 430 L28 384 Z" fill="#111827"/>
  </g>

  <text x="600" y="756" text-anchor="middle" font-size="58" font-weight="900" font-family="Inter, Arial, sans-serif" fill="#ffffff">Galaxy S25 Ultra</text>
  <text x="600" y="812" text-anchor="middle" font-size="25" font-weight="700" font-family="Inter, Arial, sans-serif" fill="#ffffff" opacity="0.82">AZIKO MARKET • mos mahsulot rasmi</text>
</svg>
