<svg xmlns="http://www.w3.org/2000/svg" width="1200" height="900" viewBox="0 0 1200 900" role="img" aria-label="Smart TV 55 inch product image">
  <defs>
    <linearGradient id="bg" x1="0" x2="1" y1="0" y2="1">
      <stop offset="0" stop-color="#0f172a"/>
      <stop offset="0.52" stop-color="#06b6d4"/>
      <stop offset="1" stop-color="#16a34a"/>
    </linearGradient>
    <radialGradient id="glow" cx="50%" cy="36%" r="62%">
      <stop offset="0" stop-color="#ffffff" stop-opacity="0.78"/>
      <stop offset="0.45" stop-color="#ffffff" stop-opacity="0.18"/>
      <stop offset="1" stop-color="#ffffff" stop-opacity="0"/>
    </radialGradient>
    <filter id="shadow" x="-25%" y="-25%" width="150%" height="150%">
      <feDropShadow dx="0" dy="30" stdDeviation="26" flood-color="#020617" flood-opacity="0.32"/>
    </filter>
    <filter id="soft" x="-15%" y="-15%" width="130%" height="130%">
      <feGaussianBlur stdDeviation="10"/>
    </filter>
    <linearGradient id="shine" x1="0" x2="1" y1="0" y2="1">
      <stop offset="0" stop-color="#ffffff" stop-opacity="0.82"/>
      <stop offset="0.35" stop-color="#ffffff" stop-opacity="0.16"/>
      <stop offset="1" stop-color="#ffffff" stop-opacity="0"/>
    </linearGradient>
  </defs>
  <rect width="1200" height="900" rx="78" fill="url(#bg)"/>
  <circle cx="190" cy="120" r="280" fill="url(#glow)"/>
  <circle cx="1030" cy="760" r="340" fill="#ffffff" opacity="0.10"/>
  <path d="M98 160 C255 60 405 68 566 130 S894 248 1090 112" fill="none" stroke="#ffffff" stroke-opacity="0.22" stroke-width="7"/>
  <path d="M90 740 C270 680 420 765 585 728 S910 620 1108 706" fill="none" stroke="#ffffff" stroke-opacity="0.14" stroke-width="5"/>

  <g filter="url(#shadow)">
    <rect x="166" y="148" width="868" height="484" rx="42" fill="#111827"/>
    <rect x="198" y="182" width="804" height="416" rx="28" fill="#020617"/>
    <rect x="222" y="206" width="756" height="368" rx="20" fill="#0f172a"/>
    <circle cx="386" cy="324" r="118" fill="#38bdf8" opacity="0.30"/>
    <circle cx="686" cy="390" r="158" fill="#a78bfa" opacity="0.25"/>
    <path d="M222 520 C386 424 548 450 698 514 S882 574 978 500 V574 H222Z" fill="#22c55e" opacity="0.58"/>
    <path d="M240 224 C436 146 764 205 960 402" fill="none" stroke="#ffffff" stroke-width="14" stroke-opacity="0.12"/>
  </g>
  <g filter="url(#shadow)">
    <rect x="550" y="632" width="100" height="52" rx="12" fill="#111827"/>
    <path d="M430 690 H770 L824 728 H376 Z" fill="#0f172a"/>
  </g>

  <text x="600" y="756" text-anchor="middle" font-size="58" font-weight="900" font-family="Inter, Arial, sans-serif" fill="#ffffff">Smart TV 55"</text>
  <text x="600" y="812" text-anchor="middle" font-size="25" font-weight="700" font-family="Inter, Arial, sans-serif" fill="#ffffff" opacity="0.82">AZIKO MARKET • mos mahsulot rasmi</text>
</svg>
