<svg xmlns="http://www.w3.org/2000/svg" width="1200" height="900" viewBox="0 0 1200 900" role="img" aria-label="White MiniPods wireless earbuds product image">
  <defs>
    <linearGradient id="bg" x1="0" x2="1" y1="0" y2="1">
      <stop offset="0" stop-color="#0f172a"/>
      <stop offset="0.52" stop-color="#06b6d4"/>
      <stop offset="1" stop-color="#e0f2fe"/>
    </linearGradient>
    <radialGradient id="glow" cx="50%" cy="36%" r="62%">
      <stop offset="0" stop-color="#ffffff" stop-opacity="0.78"/>
      <stop offset="0.45" stop-color="#ffffff" stop-opacity="0.18"/>
      <stop offset="1" stop-color="#ffffff" stop-opacity="0"/>
    </radialGradient>
    <filter id="shadow" x="-25%" y="-25%" width="150%" height="150%">
      <feDropShadow dx="0" dy="30" stdDeviation="26" flood-color="#020617" flood-opacity="0.32"/>
    </filter>
    <filter id="soft" x="-15%" y="-15%" width="130%" height="130%">
      <feGaussianBlur stdDeviation="10"/>
    </filter>
    <linearGradient id="shine" x1="0" x2="1" y1="0" y2="1">
      <stop offset="0" stop-color="#ffffff" stop-opacity="0.82"/>
      <stop offset="0.35" stop-color="#ffffff" stop-opacity="0.16"/>
      <stop offset="1" stop-color="#ffffff" stop-opacity="0"/>
    </linearGradient>
  </defs>
  <rect width="1200" height="900" rx="78" fill="url(#bg)"/>
  <circle cx="190" cy="120" r="280" fill="url(#glow)"/>
  <circle cx="1030" cy="760" r="340" fill="#ffffff" opacity="0.10"/>
  <path d="M98 160 C255 60 405 68 566 130 S894 248 1090 112" fill="none" stroke="#ffffff" stroke-opacity="0.22" stroke-width="7"/>
  <path d="M90 740 C270 680 420 765 585 728 S910 620 1108 706" fill="none" stroke="#ffffff" stroke-opacity="0.14" stroke-width="5"/>

  <g filter="url(#shadow)">
    <rect x="410" y="420" width="380" height="186" rx="78" fill="#ffffff"/>
    <rect x="454" y="452" width="292" height="92" rx="44" fill="#f1f5f9"/>
    <rect x="554" y="422" width="92" height="32" rx="16" fill="#cbd5e1"/>
    <circle cx="600" cy="523" r="16" fill="#94a3b8" opacity="0.85"/>
  </g>
  <g filter="url(#shadow)">
    <g transform="translate(368 154) rotate(-14)">
      <rect x="84" y="118" width="64" height="238" rx="32" fill="#ffffff"/>
      <ellipse cx="116" cy="98" rx="54" ry="70" fill="#ffffff"/>
      <ellipse cx="126" cy="91" rx="28" ry="36" fill="#e2e8f0"/>
      <circle cx="131" cy="89" r="15" fill="#94a3b8"/>
    </g>
    <g transform="translate(690 154) scale(-1 1) rotate(-14)">
      <rect x="84" y="118" width="64" height="238" rx="32" fill="#ffffff"/>
      <ellipse cx="116" cy="98" rx="54" ry="70" fill="#ffffff"/>
      <ellipse cx="126" cy="91" rx="28" ry="36" fill="#e2e8f0"/>
      <circle cx="131" cy="89" r="15" fill="#94a3b8"/>
    </g>
  </g>
  <circle cx="600" cy="338" r="150" fill="#ffffff" opacity="0.13"/>

  <text x="600" y="756" text-anchor="middle" font-size="58" font-weight="900" font-family="Inter, Arial, sans-serif" fill="#ffffff">MiniPods</text>
  <text x="600" y="812" text-anchor="middle" font-size="25" font-weight="700" font-family="Inter, Arial, sans-serif" fill="#ffffff" opacity="0.82">AZIKO MARKET • mos mahsulot rasmi</text>
</svg>
